<?xml version="1.0" encoding="utf-8" standalone="no"?>
<!DOCTYPE svg PUBLIC "-//W3C//DTD SVG 1.1//EN"
  "http://www.w3.org/Graphics/SVG/1.1/DTD/svg11.dtd">
<!-- Created with matplotlib (http://matplotlib.org/) -->
<svg height="356.881875pt" version="1.1" viewBox="0 0 360.003546 356.881875" width="360.003546pt" xmlns="http://www.w3.org/2000/svg" xmlns:xlink="http://www.w3.org/1999/xlink">
 <defs>
  <style type="text/css">
*{stroke-linecap:butt;stroke-linejoin:round;}
  </style>
 </defs>
 <g id="figure_1">
  <g id="patch_1">
   <path d="M 0 356.881875 
L 360.003546 356.881875 
L 360.003546 0 
L 0 0 
z
" style="fill:#ffffff;"/>
  </g>
  <g id="axes_1">
   <g id="patch_2">
    <path d="M 15.223077 333.36 
L 350.023077 333.36 
L 350.023077 7.2 
L 15.223077 7.2 
z
" style="fill:#eaeaf2;"/>
   </g>
   <g id="matplotlib.axis_1">
    <g id="xtick_1">
     <g id="line2d_1">
      <path clip-path="url(#p37c99b92d9)" d="M 28.1 333.36 
L 28.1 7.2 
" style="fill:none;stroke:#ffffff;stroke-linecap:round;"/>
     </g>
     <g id="line2d_2"/>
     <g id="text_1">
      <!-- 0 -->
      <defs>
       <path d="M 51.703125 34.421875 
Q 51.703125 17.1875 45.625 8.09375 
Q 39.546875 -0.984375 27.6875 -0.984375 
Q 15.828125 -0.984375 9.859375 8.046875 
Q 3.90625 17.09375 3.90625 34.421875 
Q 3.90625 52.15625 9.6875 60.984375 
Q 15.484375 69.828125 27.984375 69.828125 
Q 40.140625 69.828125 45.921875 60.890625 
Q 51.703125 51.953125 51.703125 34.421875 
z
M 42.78125 34.421875 
Q 42.78125 49.3125 39.328125 56 
Q 35.890625 62.703125 27.984375 62.703125 
Q 19.875 62.703125 16.328125 56.109375 
Q 12.796875 49.515625 12.796875 34.421875 
Q 12.796875 19.78125 16.375 12.984375 
Q 19.96875 6.203125 27.78125 6.203125 
Q 35.546875 6.203125 39.15625 13.125 
Q 42.78125 20.0625 42.78125 34.421875 
z
" id="LiberationSans-30"/>
      </defs>
      <g style="fill:#262626;" transform="translate(25.319531 347.606875)scale(0.1 -0.1)">
       <use xlink:href="#LiberationSans-30"/>
      </g>
     </g>
    </g>
    <g id="xtick_2">
     <g id="line2d_3">
      <path clip-path="url(#p37c99b92d9)" d="M 92.484615 333.36 
L 92.484615 7.2 
" style="fill:none;stroke:#ffffff;stroke-linecap:round;"/>
     </g>
     <g id="line2d_4"/>
     <g id="text_2">
      <!-- 1 -->
      <defs>
       <path d="M 7.625 0 
L 7.625 7.46875 
L 25.140625 7.46875 
L 25.140625 60.40625 
L 9.625 49.3125 
L 9.625 57.625 
L 25.875 68.796875 
L 33.984375 68.796875 
L 33.984375 7.46875 
L 50.734375 7.46875 
L 50.734375 0 
z
" id="LiberationSans-31"/>
      </defs>
      <g style="fill:#262626;" transform="translate(89.704147 347.606875)scale(0.1 -0.1)">
       <use xlink:href="#LiberationSans-31"/>
      </g>
     </g>
    </g>
    <g id="xtick_3">
     <g id="line2d_5">
      <path clip-path="url(#p37c99b92d9)" d="M 156.869231 333.36 
L 156.869231 7.2 
" style="fill:none;stroke:#ffffff;stroke-linecap:round;"/>
     </g>
     <g id="line2d_6"/>
     <g id="text_3">
      <!-- 2 -->
      <defs>
       <path d="M 5.03125 0 
L 5.03125 6.203125 
Q 7.515625 11.921875 11.109375 16.28125 
Q 14.703125 20.65625 18.65625 24.1875 
Q 22.609375 27.734375 26.484375 30.765625 
Q 30.375 33.796875 33.5 36.8125 
Q 36.625 39.84375 38.546875 43.15625 
Q 40.484375 46.484375 40.484375 50.6875 
Q 40.484375 56.34375 37.15625 59.46875 
Q 33.84375 62.59375 27.9375 62.59375 
Q 22.3125 62.59375 18.671875 59.546875 
Q 15.046875 56.5 14.40625 50.984375 
L 5.421875 51.8125 
Q 6.390625 60.0625 12.421875 64.9375 
Q 18.453125 69.828125 27.9375 69.828125 
Q 38.328125 69.828125 43.921875 64.921875 
Q 49.515625 60.015625 49.515625 50.984375 
Q 49.515625 46.96875 47.671875 43.015625 
Q 45.84375 39.0625 42.234375 35.109375 
Q 38.625 31.15625 28.421875 22.859375 
Q 22.796875 18.265625 19.46875 14.578125 
Q 16.15625 10.890625 14.703125 7.46875 
L 50.59375 7.46875 
L 50.59375 0 
z
" id="LiberationSans-32"/>
      </defs>
      <g style="fill:#262626;" transform="translate(154.088762 347.606875)scale(0.1 -0.1)">
       <use xlink:href="#LiberationSans-32"/>
      </g>
     </g>
    </g>
    <g id="xtick_4">
     <g id="line2d_7">
      <path clip-path="url(#p37c99b92d9)" d="M 221.253846 333.36 
L 221.253846 7.2 
" style="fill:none;stroke:#ffffff;stroke-linecap:round;"/>
     </g>
     <g id="line2d_8"/>
     <g id="text_4">
      <!-- 3 -->
      <defs>
       <path d="M 51.21875 19 
Q 51.21875 9.46875 45.15625 4.234375 
Q 39.109375 -0.984375 27.875 -0.984375 
Q 17.4375 -0.984375 11.203125 3.734375 
Q 4.984375 8.453125 3.8125 17.671875 
L 12.890625 18.5 
Q 14.65625 6.296875 27.875 6.296875 
Q 34.515625 6.296875 38.296875 9.5625 
Q 42.09375 12.84375 42.09375 19.28125 
Q 42.09375 24.90625 37.765625 28.046875 
Q 33.453125 31.203125 25.296875 31.203125 
L 20.3125 31.203125 
L 20.3125 38.8125 
L 25.09375 38.8125 
Q 32.328125 38.8125 36.296875 41.96875 
Q 40.28125 45.125 40.28125 50.6875 
Q 40.28125 56.203125 37.03125 59.390625 
Q 33.796875 62.59375 27.390625 62.59375 
Q 21.578125 62.59375 17.984375 59.609375 
Q 14.40625 56.640625 13.8125 51.21875 
L 4.984375 51.90625 
Q 5.953125 60.359375 11.984375 65.09375 
Q 18.015625 69.828125 27.484375 69.828125 
Q 37.84375 69.828125 43.578125 65.015625 
Q 49.3125 60.203125 49.3125 51.609375 
Q 49.3125 45.015625 45.625 40.890625 
Q 41.9375 36.765625 34.90625 35.296875 
L 34.90625 35.109375 
Q 42.625 34.28125 46.921875 29.9375 
Q 51.21875 25.59375 51.21875 19 
z
" id="LiberationSans-33"/>
      </defs>
      <g style="fill:#262626;" transform="translate(218.473377 347.606875)scale(0.1 -0.1)">
       <use xlink:href="#LiberationSans-33"/>
      </g>
     </g>
    </g>
    <g id="xtick_5">
     <g id="line2d_9">
      <path clip-path="url(#p37c99b92d9)" d="M 285.638462 333.36 
L 285.638462 7.2 
" style="fill:none;stroke:#ffffff;stroke-linecap:round;"/>
     </g>
     <g id="line2d_10"/>
     <g id="text_5">
      <!-- 4 -->
      <defs>
       <path d="M 43.015625 15.578125 
L 43.015625 0 
L 34.71875 0 
L 34.71875 15.578125 
L 2.296875 15.578125 
L 2.296875 22.40625 
L 33.796875 68.796875 
L 43.015625 68.796875 
L 43.015625 22.515625 
L 52.6875 22.515625 
L 52.6875 15.578125 
z
M 34.71875 58.890625 
Q 34.625 58.59375 33.34375 56.296875 
Q 32.078125 54 31.453125 53.078125 
L 13.8125 27.09375 
L 11.1875 23.484375 
L 10.40625 22.515625 
L 34.71875 22.515625 
z
" id="LiberationSans-34"/>
      </defs>
      <g style="fill:#262626;" transform="translate(282.857993 347.606875)scale(0.1 -0.1)">
       <use xlink:href="#LiberationSans-34"/>
      </g>
     </g>
    </g>
    <g id="xtick_6">
     <g id="line2d_11">
      <path clip-path="url(#p37c99b92d9)" d="M 350.023077 333.36 
L 350.023077 7.2 
" style="fill:none;stroke:#ffffff;stroke-linecap:round;"/>
     </g>
     <g id="line2d_12"/>
     <g id="text_6">
      <!-- 5 -->
      <defs>
       <path d="M 51.421875 22.40625 
Q 51.421875 11.53125 44.953125 5.265625 
Q 38.484375 -0.984375 27 -0.984375 
Q 17.390625 -0.984375 11.46875 3.21875 
Q 5.5625 7.421875 4 15.375 
L 12.890625 16.40625 
Q 15.671875 6.203125 27.203125 6.203125 
Q 34.28125 6.203125 38.28125 10.46875 
Q 42.28125 14.75 42.28125 22.21875 
Q 42.28125 28.71875 38.25 32.71875 
Q 34.234375 36.71875 27.390625 36.71875 
Q 23.828125 36.71875 20.75 35.59375 
Q 17.671875 34.46875 14.59375 31.78125 
L 6 31.78125 
L 8.296875 68.796875 
L 47.40625 68.796875 
L 47.40625 61.328125 
L 16.3125 61.328125 
L 14.984375 39.5 
Q 20.703125 43.890625 29.203125 43.890625 
Q 39.359375 43.890625 45.390625 37.9375 
Q 51.421875 31.984375 51.421875 22.40625 
z
" id="LiberationSans-35"/>
      </defs>
      <g style="fill:#262626;" transform="translate(347.242608 347.606875)scale(0.1 -0.1)">
       <use xlink:href="#LiberationSans-35"/>
      </g>
     </g>
    </g>
   </g>
   <g id="matplotlib.axis_2">
    <g id="ytick_1">
     <g id="line2d_13">
      <path clip-path="url(#p37c99b92d9)" d="M 15.223077 333.36 
L 350.023077 333.36 
" style="fill:none;stroke:#ffffff;stroke-linecap:round;"/>
     </g>
     <g id="line2d_14"/>
     <g id="text_7">
      <!-- 0.0 -->
      <defs>
       <path d="M 9.125 0 
L 9.125 10.6875 
L 18.65625 10.6875 
L 18.65625 0 
z
" id="LiberationSans-2e"/>
      </defs>
      <g style="fill:#262626;" transform="translate(7.2 336.983438)scale(0.1 -0.1)">
       <use xlink:href="#LiberationSans-30"/>
       <use x="55.615234" xlink:href="#LiberationSans-2e"/>
       <use x="83.398438" xlink:href="#LiberationSans-30"/>
      </g>
     </g>
    </g>
    <g id="ytick_2">
     <g id="line2d_15">
      <path clip-path="url(#p37c99b92d9)" d="M 15.223077 294.531429 
L 350.023077 294.531429 
" style="fill:none;stroke:#ffffff;stroke-linecap:round;"/>
     </g>
     <g id="line2d_16"/>
     <g id="text_8">
      <!-- 0.5 -->
      <g style="fill:#262626;" transform="translate(7.2 298.154866)scale(0.1 -0.1)">
       <use xlink:href="#LiberationSans-30"/>
       <use x="55.615234" xlink:href="#LiberationSans-2e"/>
       <use x="83.398438" xlink:href="#LiberationSans-35"/>
      </g>
     </g>
    </g>
    <g id="ytick_3">
     <g id="line2d_17">
      <path clip-path="url(#p37c99b92d9)" d="M 15.223077 255.702857 
L 350.023077 255.702857 
" style="fill:none;stroke:#ffffff;stroke-linecap:round;"/>
     </g>
     <g id="line2d_18"/>
     <g id="text_9">
      <!-- 1.0 -->
      <g style="fill:#262626;" transform="translate(7.2 259.326295)scale(0.1 -0.1)">
       <use xlink:href="#LiberationSans-31"/>
       <use x="55.615234" xlink:href="#LiberationSans-2e"/>
       <use x="83.398438" xlink:href="#LiberationSans-30"/>
      </g>
     </g>
    </g>
    <g id="ytick_4">
     <g id="line2d_19">
      <path clip-path="url(#p37c99b92d9)" d="M 15.223077 216.874286 
L 350.023077 216.874286 
" style="fill:none;stroke:#ffffff;stroke-linecap:round;"/>
     </g>
     <g id="line2d_20"/>
     <g id="text_10">
      <!-- 1.5 -->
      <g style="fill:#262626;" transform="translate(7.2 220.497723)scale(0.1 -0.1)">
       <use xlink:href="#LiberationSans-31"/>
       <use x="55.615234" xlink:href="#LiberationSans-2e"/>
       <use x="83.398438" xlink:href="#LiberationSans-35"/>
      </g>
     </g>
    </g>
    <g id="ytick_5">
     <g id="line2d_21">
      <path clip-path="url(#p37c99b92d9)" d="M 15.223077 178.045714 
L 350.023077 178.045714 
" style="fill:none;stroke:#ffffff;stroke-linecap:round;"/>
     </g>
     <g id="line2d_22"/>
     <g id="text_11">
      <!-- 2.0 -->
      <g style="fill:#262626;" transform="translate(7.2 181.669152)scale(0.1 -0.1)">
       <use xlink:href="#LiberationSans-32"/>
       <use x="55.615234" xlink:href="#LiberationSans-2e"/>
       <use x="83.398438" xlink:href="#LiberationSans-30"/>
      </g>
     </g>
    </g>
    <g id="ytick_6">
     <g id="line2d_23">
      <path clip-path="url(#p37c99b92d9)" d="M 15.223077 139.217143 
L 350.023077 139.217143 
" style="fill:none;stroke:#ffffff;stroke-linecap:round;"/>
     </g>
     <g id="line2d_24"/>
     <g id="text_12">
      <!-- 2.5 -->
      <g style="fill:#262626;" transform="translate(7.2 142.84058)scale(0.1 -0.1)">
       <use xlink:href="#LiberationSans-32"/>
       <use x="55.615234" xlink:href="#LiberationSans-2e"/>
       <use x="83.398438" xlink:href="#LiberationSans-35"/>
      </g>
     </g>
    </g>
    <g id="ytick_7">
     <g id="line2d_25">
      <path clip-path="url(#p37c99b92d9)" d="M 15.223077 100.388571 
L 350.023077 100.388571 
" style="fill:none;stroke:#ffffff;stroke-linecap:round;"/>
     </g>
     <g id="line2d_26"/>
     <g id="text_13">
      <!-- 3.0 -->
      <g style="fill:#262626;" transform="translate(7.2 104.012009)scale(0.1 -0.1)">
       <use xlink:href="#LiberationSans-33"/>
       <use x="55.615234" xlink:href="#LiberationSans-2e"/>
       <use x="83.398438" xlink:href="#LiberationSans-30"/>
      </g>
     </g>
    </g>
    <g id="ytick_8">
     <g id="line2d_27">
      <path clip-path="url(#p37c99b92d9)" d="M 15.223077 61.56 
L 350.023077 61.56 
" style="fill:none;stroke:#ffffff;stroke-linecap:round;"/>
     </g>
     <g id="line2d_28"/>
     <g id="text_14">
      <!-- 3.5 -->
      <g style="fill:#262626;" transform="translate(7.2 65.183438)scale(0.1 -0.1)">
       <use xlink:href="#LiberationSans-33"/>
       <use x="55.615234" xlink:href="#LiberationSans-2e"/>
       <use x="83.398438" xlink:href="#LiberationSans-35"/>
      </g>
     </g>
    </g>
    <g id="ytick_9">
     <g id="line2d_29">
      <path clip-path="url(#p37c99b92d9)" d="M 15.223077 22.731429 
L 350.023077 22.731429 
" style="fill:none;stroke:#ffffff;stroke-linecap:round;"/>
     </g>
     <g id="line2d_30"/>
     <g id="text_15">
      <!-- 4.0 -->
      <g style="fill:#262626;" transform="translate(7.2 26.354866)scale(0.1 -0.1)">
       <use xlink:href="#LiberationSans-34"/>
       <use x="55.615234" xlink:href="#LiberationSans-2e"/>
       <use x="83.398438" xlink:href="#LiberationSans-30"/>
      </g>
     </g>
    </g>
   </g>
   <g id="patch_3">
    <path clip-path="url(#p37c99b92d9)" d="M 28.1 333.36 
L 28.1 178.045714 
L 29.413972 174.876035 
L 30.727943 171.706356 
L 32.041915 168.536676 
L 33.355887 165.366997 
L 34.669859 162.197318 
L 35.98383 159.027638 
L 37.297802 155.857959 
L 38.611774 152.68828 
L 39.925746 149.518601 
L 41.239717 146.348921 
L 42.553689 143.179242 
L 43.867661 140.009563 
L 45.181633 136.839883 
L 46.495604 133.670204 
L 47.809576 130.500525 
L 49.123548 127.330845 
L 50.43752 124.161166 
L 51.751491 120.991487 
L 53.065463 117.821808 
L 54.379435 114.652128 
L 55.693407 111.482449 
L 57.007378 108.31277 
L 58.32135 105.14309 
L 59.635322 101.973411 
L 60.949294 98.803732 
L 62.263265 95.634052 
L 63.577237 92.464373 
L 64.891209 89.294694 
L 66.205181 86.125015 
L 67.519152 82.955335 
L 68.833124 79.785656 
L 70.147096 76.615977 
L 71.461068 73.446297 
L 72.775039 70.276618 
L 74.089011 67.106939 
L 75.402983 63.937259 
L 76.716954 60.76758 
L 78.030926 57.597901 
L 79.344898 54.428222 
L 80.65887 51.258542 
L 81.972841 48.088863 
L 83.286813 44.919184 
L 84.600785 41.749504 
L 85.914757 38.579825 
L 87.228728 35.410146 
L 88.5427 32.240466 
L 89.856672 29.070787 
L 91.170644 25.901108 
L 92.484615 22.731429 
L 92.484615 22.731429 
L 96.426531 27.485948 
L 100.368446 32.240466 
L 104.310361 36.994985 
L 108.252276 41.749504 
L 112.194192 46.504023 
L 116.136107 51.258542 
L 120.078022 56.013061 
L 124.019937 60.76758 
L 127.961852 65.522099 
L 131.903768 70.276618 
L 135.845683 75.031137 
L 139.787598 79.785656 
L 143.729513 84.540175 
L 147.671429 89.294694 
L 151.613344 94.049213 
L 155.555259 98.803732 
L 159.497174 103.558251 
L 163.439089 108.31277 
L 167.381005 113.067289 
L 171.32292 117.821808 
L 175.264835 122.576327 
L 179.20675 127.330845 
L 183.148666 132.085364 
L 187.090581 136.839883 
L 191.032496 141.594402 
L 194.974411 146.348921 
L 198.916327 151.10344 
L 202.858242 155.857959 
L 206.800157 160.612478 
L 210.742072 165.366997 
L 214.683987 170.121516 
L 218.625903 174.876035 
L 222.567818 179.630554 
L 226.509733 184.385073 
L 230.451648 189.139592 
L 234.393564 193.894111 
L 238.335479 198.64863 
L 242.277394 203.403149 
L 246.219309 208.157668 
L 250.161224 212.912187 
L 254.10314 217.666706 
L 258.045055 222.421224 
L 261.98697 227.175743 
L 265.928885 231.930262 
L 269.870801 236.684781 
L 273.812716 241.4393 
L 277.754631 246.193819 
L 281.696546 250.948338 
L 285.638462 255.702857 
L 156.869231 333.36 
L 159.497174 331.77516 
L 162.125118 330.190321 
L 164.753061 328.605481 
L 167.381005 327.020641 
L 170.008948 325.435802 
L 172.636892 323.850962 
L 175.264835 322.266122 
L 177.892779 320.681283 
L 180.520722 319.096443 
L 183.148666 317.511603 
L 185.776609 315.926764 
L 188.404553 314.341924 
L 191.032496 312.757085 
L 193.66044 311.172245 
L 196.288383 309.587405 
L 198.916327 308.002566 
L 201.54427 306.417726 
L 204.172214 304.832886 
L 206.800157 303.248047 
L 209.4281 301.663207 
L 212.056044 300.078367 
L 214.683987 298.493528 
L 217.311931 296.908688 
L 219.939874 295.323848 
L 222.567818 293.739009 
L 225.195761 292.154169 
L 227.823705 290.569329 
L 230.451648 288.98449 
L 233.079592 287.39965 
L 235.707535 285.81481 
L 238.335479 284.229971 
L 240.963422 282.645131 
L 243.591366 281.060292 
L 246.219309 279.475452 
L 248.847253 277.890612 
L 251.475196 276.305773 
L 254.10314 274.720933 
L 256.731083 273.136093 
L 259.359027 271.551254 
L 261.98697 269.966414 
L 264.614914 268.381574 
L 267.242857 266.796735 
L 269.870801 265.211895 
L 272.498744 263.627055 
L 275.126688 262.042216 
L 277.754631 260.457376 
L 280.382575 258.872536 
L 283.010518 257.287697 
L 285.638462 255.702857 
L 156.869231 333.36 
z
" style="fill:#e6e6e6;stroke:#808080;stroke-linejoin:miter;stroke-width:0.3;"/>
   </g>
   <g id="line2d_31">
    <path clip-path="url(#p37c99b92d9)" d="M 28.1 178.045714 
L 29.413972 174.876035 
L 30.727943 171.706356 
L 32.041915 168.536676 
L 33.355887 165.366997 
L 34.669859 162.197318 
L 35.98383 159.027638 
L 37.297802 155.857959 
L 38.611774 152.68828 
L 39.925746 149.518601 
L 41.239717 146.348921 
L 42.553689 143.179242 
L 43.867661 140.009563 
L 45.181633 136.839883 
L 46.495604 133.670204 
L 47.809576 130.500525 
L 49.123548 127.330845 
L 50.43752 124.161166 
L 51.751491 120.991487 
L 53.065463 117.821808 
L 54.379435 114.652128 
L 55.693407 111.482449 
L 57.007378 108.31277 
L 58.32135 105.14309 
L 59.635322 101.973411 
L 60.949294 98.803732 
L 62.263265 95.634052 
L 63.577237 92.464373 
L 64.891209 89.294694 
L 66.205181 86.125015 
L 67.519152 82.955335 
L 68.833124 79.785656 
L 70.147096 76.615977 
L 71.461068 73.446297 
L 72.775039 70.276618 
L 74.089011 67.106939 
L 75.402983 63.937259 
L 76.716954 60.76758 
L 78.030926 57.597901 
L 79.344898 54.428222 
L 80.65887 51.258542 
L 81.972841 48.088863 
L 83.286813 44.919184 
L 84.600785 41.749504 
L 85.914757 38.579825 
L 87.228728 35.410146 
L 88.5427 32.240466 
L 89.856672 29.070787 
L 91.170644 25.901108 
L 92.484615 22.731429 
" style="fill:none;stroke:#ff0000;stroke-linecap:round;stroke-width:2;"/>
   </g>
   <g id="line2d_32">
    <path clip-path="url(#p37c99b92d9)" d="M 92.484615 22.731429 
L 96.426531 27.485948 
L 100.368446 32.240466 
L 104.310361 36.994985 
L 108.252276 41.749504 
L 112.194192 46.504023 
L 116.136107 51.258542 
L 120.078022 56.013061 
L 124.019937 60.76758 
L 127.961852 65.522099 
L 131.903768 70.276618 
L 135.845683 75.031137 
L 139.787598 79.785656 
L 143.729513 84.540175 
L 147.671429 89.294694 
L 151.613344 94.049213 
L 155.555259 98.803732 
L 159.497174 103.558251 
L 163.439089 108.31277 
L 167.381005 113.067289 
L 171.32292 117.821808 
L 175.264835 122.576327 
L 179.20675 127.330845 
L 183.148666 132.085364 
L 187.090581 136.839883 
L 191.032496 141.594402 
L 194.974411 146.348921 
L 198.916327 151.10344 
L 202.858242 155.857959 
L 206.800157 160.612478 
L 210.742072 165.366997 
L 214.683987 170.121516 
L 218.625903 174.876035 
L 222.567818 179.630554 
L 226.509733 184.385073 
L 230.451648 189.139592 
L 234.393564 193.894111 
L 238.335479 198.64863 
L 242.277394 203.403149 
L 246.219309 208.157668 
L 250.161224 212.912187 
L 254.10314 217.666706 
L 258.045055 222.421224 
L 261.98697 227.175743 
L 265.928885 231.930262 
L 269.870801 236.684781 
L 273.812716 241.4393 
L 277.754631 246.193819 
L 281.696546 250.948338 
L 285.638462 255.702857 
" style="fill:none;stroke:#ff0000;stroke-linecap:round;stroke-width:2;"/>
   </g>
   <g id="line2d_33">
    <path clip-path="url(#p37c99b92d9)" d="M 156.869231 333.36 
L 159.497174 331.77516 
L 162.125118 330.190321 
L 164.753061 328.605481 
L 167.381005 327.020641 
L 170.008948 325.435802 
L 172.636892 323.850962 
L 175.264835 322.266122 
L 177.892779 320.681283 
L 180.520722 319.096443 
L 183.148666 317.511603 
L 185.776609 315.926764 
L 188.404553 314.341924 
L 191.032496 312.757085 
L 193.66044 311.172245 
L 196.288383 309.587405 
L 198.916327 308.002566 
L 201.54427 306.417726 
L 204.172214 304.832886 
L 206.800157 303.248047 
L 209.4281 301.663207 
L 212.056044 300.078367 
L 214.683987 298.493528 
L 217.311931 296.908688 
L 219.939874 295.323848 
L 222.567818 293.739009 
L 225.195761 292.154169 
L 227.823705 290.569329 
L 230.451648 288.98449 
L 233.079592 287.39965 
L 235.707535 285.81481 
L 238.335479 284.229971 
L 240.963422 282.645131 
L 243.591366 281.060292 
L 246.219309 279.475452 
L 248.847253 277.890612 
L 251.475196 276.305773 
L 254.10314 274.720933 
L 256.731083 273.136093 
L 259.359027 271.551254 
L 261.98697 269.966414 
L 264.614914 268.381574 
L 267.242857 266.796735 
L 269.870801 265.211895 
L 272.498744 263.627055 
L 275.126688 262.042216 
L 277.754631 260.457376 
L 280.382575 258.872536 
L 283.010518 257.287697 
L 285.638462 255.702857 
" style="fill:none;stroke:#ff0000;stroke-linecap:round;stroke-width:2;"/>
   </g>
   <g id="line2d_34">
    <path clip-path="url(#p37c99b92d9)" d="M 28.1 333.36 
L 30.727943 333.36 
L 33.355887 333.36 
L 35.98383 333.36 
L 38.611774 333.36 
L 41.239717 333.36 
L 43.867661 333.36 
L 46.495604 333.36 
L 49.123548 333.36 
L 51.751491 333.36 
L 54.379435 333.36 
L 57.007378 333.36 
L 59.635322 333.36 
L 62.263265 333.36 
L 64.891209 333.36 
L 67.519152 333.36 
L 70.147096 333.36 
L 72.775039 333.36 
L 75.402983 333.36 
L 78.030926 333.36 
L 80.65887 333.36 
L 83.286813 333.36 
L 85.914757 333.36 
L 88.5427 333.36 
L 91.170644 333.36 
L 93.798587 333.36 
L 96.426531 333.36 
L 99.054474 333.36 
L 101.682418 333.36 
L 104.310361 333.36 
L 106.938305 333.36 
L 109.566248 333.36 
L 112.194192 333.36 
L 114.822135 333.36 
L 117.450078 333.36 
L 120.078022 333.36 
L 122.705965 333.36 
L 125.333909 333.36 
L 127.961852 333.36 
L 130.589796 333.36 
L 133.217739 333.36 
L 135.845683 333.36 
L 138.473626 333.36 
L 141.10157 333.36 
L 143.729513 333.36 
L 146.357457 333.36 
L 148.9854 333.36 
L 151.613344 333.36 
L 154.241287 333.36 
L 156.869231 333.36 
" style="fill:none;stroke:#ff0000;stroke-linecap:round;stroke-width:2;"/>
   </g>
   <g id="line2d_35">
    <path clip-path="url(#p37c99b92d9)" d="M 28.1 333.36 
L 28.1 330.190321 
L 28.1 327.020641 
L 28.1 323.850962 
L 28.1 320.681283 
L 28.1 317.511603 
L 28.1 314.341924 
L 28.1 311.172245 
L 28.1 308.002566 
L 28.1 304.832886 
L 28.1 301.663207 
L 28.1 298.493528 
L 28.1 295.323848 
L 28.1 292.154169 
L 28.1 288.98449 
L 28.1 285.81481 
L 28.1 282.645131 
L 28.1 279.475452 
L 28.1 276.305773 
L 28.1 273.136093 
L 28.1 269.966414 
L 28.1 266.796735 
L 28.1 263.627055 
L 28.1 260.457376 
L 28.1 257.287697 
L 28.1 254.118017 
L 28.1 250.948338 
L 28.1 247.778659 
L 28.1 244.60898 
L 28.1 241.4393 
L 28.1 238.269621 
L 28.1 235.099942 
L 28.1 231.930262 
L 28.1 228.760583 
L 28.1 225.590904 
L 28.1 222.421224 
L 28.1 219.251545 
L 28.1 216.081866 
L 28.1 212.912187 
L 28.1 209.742507 
L 28.1 206.572828 
L 28.1 203.403149 
L 28.1 200.233469 
L 28.1 197.06379 
L 28.1 193.894111 
L 28.1 190.724431 
L 28.1 187.554752 
L 28.1 184.385073 
L 28.1 181.215394 
L 28.1 178.045714 
" style="fill:none;stroke:#ff0000;stroke-linecap:round;stroke-width:2;"/>
   </g>
   <g id="line2d_36">
    <path clip-path="url(#p37c99b92d9)" d="M 15.223077 310.062857 
L 20.084772 304.19895 
L 24.946468 298.335044 
L 29.808163 292.471137 
L 34.669859 286.60723 
L 39.531554 280.743324 
L 44.39325 274.879417 
L 49.254945 269.01551 
L 54.116641 263.151603 
L 58.978336 257.287697 
L 63.840031 251.42379 
L 68.701727 245.559883 
L 73.563422 239.695977 
L 78.425118 233.83207 
L 83.286813 227.968163 
L 88.148509 222.104257 
L 93.010204 216.24035 
L 97.8719 210.376443 
L 102.733595 204.512536 
L 107.59529 198.64863 
L 112.456986 192.784723 
L 117.318681 186.920816 
L 122.180377 181.05691 
L 127.042072 175.193003 
L 131.903768 169.329096 
L 136.765463 163.46519 
L 141.627159 157.601283 
L 146.488854 151.737376 
L 151.350549 145.873469 
L 156.212245 140.009563 
L 161.07394 134.145656 
L 165.935636 128.281749 
L 170.797331 122.417843 
L 175.659027 116.553936 
L 180.520722 110.690029 
L 185.382418 104.826122 
L 190.244113 98.962216 
L 195.105808 93.098309 
L 199.967504 87.234402 
L 204.829199 81.370496 
L 209.690895 75.506589 
L 214.55259 69.642682 
L 219.414286 63.778776 
L 224.275981 57.914869 
L 229.137677 52.050962 
L 233.999372 46.187055 
L 238.861068 40.323149 
L 243.722763 34.459242 
L 248.584458 28.595335 
L 253.446154 22.731429 
" style="fill:none;stroke:#0000ff;stroke-dasharray:7.4,3.2;stroke-dashoffset:0;stroke-width:2;"/>
   </g>
   <g id="patch_4">
    <path d="M 28.1 333.36 
L 28.1 7.2 
" style="fill:none;"/>
   </g>
   <g id="patch_5">
    <path d="M 15.223077 333.36 
L 350.023077 333.36 
" style="fill:none;"/>
   </g>
   <g id="text_16">
    <!-- z=0.5 -->
    <defs>
     <path d="M 4.046875 0 
L 4.046875 6.6875 
L 33.59375 46.046875 
L 5.71875 46.046875 
L 5.71875 52.828125 
L 44 52.828125 
L 44 46.140625 
L 14.40625 6.78125 
L 45.015625 6.78125 
L 45.015625 0 
z
" id="LiberationSans-7a"/>
     <path d="M 4.890625 41.796875 
L 4.890625 49.03125 
L 53.46875 49.03125 
L 53.46875 41.796875 
z
M 4.890625 16.796875 
L 4.890625 24.03125 
L 53.46875 24.03125 
L 53.46875 16.796875 
z
" id="LiberationSans-3d"/>
    </defs>
    <g style="fill:#262626;" transform="translate(247.007692 38.262857)scale(0.1 -0.1)">
     <use xlink:href="#LiberationSans-7a"/>
     <use x="50" xlink:href="#LiberationSans-3d"/>
     <use x="108.398438" xlink:href="#LiberationSans-30"/>
     <use x="164.013672" xlink:href="#LiberationSans-2e"/>
     <use x="191.796875" xlink:href="#LiberationSans-35"/>
    </g>
   </g>
   <g id="text_17">
    <!-- (1, 4) -->
    <defs>
     <path d="M 6.203125 25.984375 
Q 6.203125 40.09375 10.625 51.3125 
Q 15.046875 62.546875 24.21875 72.46875 
L 32.71875 72.46875 
Q 23.578125 62.3125 19.3125 50.875 
Q 15.046875 39.453125 15.046875 25.875 
Q 15.046875 12.359375 19.265625 0.96875 
Q 23.484375 -10.40625 32.71875 -20.703125 
L 24.21875 -20.703125 
Q 14.984375 -10.75 10.59375 0.5 
Q 6.203125 11.765625 6.203125 25.78125 
z
" id="LiberationSans-28"/>
     <path d="M 18.796875 10.6875 
L 18.796875 2.484375 
Q 18.796875 -2.6875 17.859375 -6.15625 
Q 16.9375 -9.625 14.984375 -12.796875 
L 8.984375 -12.796875 
Q 13.578125 -6.15625 13.578125 0 
L 9.28125 0 
L 9.28125 10.6875 
z
" id="LiberationSans-2c"/>
     <path id="LiberationSans-20"/>
     <path d="M 27.09375 25.78125 
Q 27.09375 11.671875 22.671875 0.4375 
Q 18.265625 -10.796875 9.078125 -20.703125 
L 0.59375 -20.703125 
Q 9.765625 -10.453125 14.015625 0.890625 
Q 18.265625 12.25 18.265625 25.875 
Q 18.265625 39.5 13.984375 50.875 
Q 9.71875 62.25 0.59375 72.46875 
L 9.078125 72.46875 
Q 18.3125 62.5 22.703125 51.234375 
Q 27.09375 39.984375 27.09375 25.984375 
z
" id="LiberationSans-29"/>
    </defs>
    <g style="fill:#262626;" transform="translate(98.923077 22.731429)scale(0.1 -0.1)">
     <use xlink:href="#LiberationSans-28"/>
     <use x="33.300781" xlink:href="#LiberationSans-31"/>
     <use x="88.916016" xlink:href="#LiberationSans-2c"/>
     <use x="116.699219" xlink:href="#LiberationSans-20"/>
     <use x="144.482422" xlink:href="#LiberationSans-34"/>
     <use x="200.097656" xlink:href="#LiberationSans-29"/>
    </g>
   </g>
   <g id="text_18">
    <!-- (4, 1) -->
    <g style="fill:#262626;" transform="translate(292.076923 255.702857)scale(0.1 -0.1)">
     <use xlink:href="#LiberationSans-28"/>
     <use x="33.300781" xlink:href="#LiberationSans-34"/>
     <use x="88.916016" xlink:href="#LiberationSans-2c"/>
     <use x="116.699219" xlink:href="#LiberationSans-20"/>
     <use x="144.482422" xlink:href="#LiberationSans-31"/>
     <use x="200.097656" xlink:href="#LiberationSans-29"/>
    </g>
   </g>
  </g>
 </g>
 <defs>
  <clipPath id="p37c99b92d9">
   <rect height="326.16" width="334.8" x="15.223077" y="7.2"/>
  </clipPath>
 </defs>
</svg>
